<?xml version="1.0" encoding="UTF-8" standalone="no"?>
<!-- Created with Inkscape (http://www.inkscape.org/) -->

<svg
   xmlns:dc="http://purl.org/dc/elements/1.1/"
   xmlns:cc="http://creativecommons.org/ns#"
   xmlns:rdf="http://www.w3.org/1999/02/22-rdf-syntax-ns#"
   xmlns:svg="http://www.w3.org/2000/svg"
   xmlns="http://www.w3.org/2000/svg"
   xmlns:sodipodi="http://sodipodi.sourceforge.net/DTD/sodipodi-0.dtd"
   xmlns:inkscape="http://www.inkscape.org/namespaces/inkscape"
   width="894.94928mm"
   height="185.08832mm"
   viewBox="0 0 894.94928 185.08832"
   version="1.1"
   id="svg2939"
   sodipodi:docname="current_logo.svg"
   inkscape:version="0.92.3 (2405546, 2018-03-11)">
  <defs
     id="defs2933" />
  <sodipodi:namedview
     id="base"
     pagecolor="#ffffff"
     bordercolor="#666666"
     borderopacity="1.0"
     inkscape:pageopacity="0"
     inkscape:pageshadow="2"
     inkscape:zoom="0.33821282"
     inkscape:cx="2103.5428"
     inkscape:cy="191.16425"
     inkscape:document-units="px"
     inkscape:current-layer="layer1"
     showgrid="false"
     showborder="false"
     inkscape:window-width="1600"
     inkscape:window-height="845"
     inkscape:window-x="0"
     inkscape:window-y="0"
     inkscape:window-maximized="1"
     fit-margin-top="0"
     fit-margin-left="0"
     fit-margin-right="0"
     fit-margin-bottom="0" />
  <metadata
     id="metadata2936">
    <rdf:RDF>
      <cc:Work
         rdf:about="">
        <dc:format>image/svg+xml</dc:format>
        <dc:type
           rdf:resource="http://purl.org/dc/dcmitype/StillImage" />
        <dc:title></dc:title>
      </cc:Work>
    </rdf:RDF>
  </metadata>
  <g
     inkscape:label="Layer 1"
     inkscape:groupmode="layer"
     id="layer1"
     transform="translate(258.85075,343.10972)">
    <g
       id="g6804"
       transform="translate(-254.24697,-330.9122)">
      <g
         id="g2871"
         inkscape:label="ink_ext_XXXXXX"
         transform="matrix(0.23958528,0,0,-0.23958528,-47.97229,218.21358)">
        <path
           inkscape:connector-curvature="0"
           id="path2879"
           style="fill:#a01c1c;fill-opacity:1;fill-rule:nonzero;stroke:none;stroke-width:0.1"
           d="m 564.757,785.576 c -12.322,-2.006 -24.686,-2.495 -37.138,-0.319 -44.121,7.708 -82.311,33.453 -128.749,30.011 -59.202,-4.388 -116.925,-30.529 -157.071,-73.312 -54.578,-58.163 -74.67,-144.996 -50.974,-220.297 13.803,-43.861 40.768,-82.493 67.355,-120.376 31.373,-44.7 62.744,-89.399 94.117,-134.099 12.733,-18.142 25.744,-36.579 43.454,-50.208 26.622,-20.488 61.745,-28.208 95.688,-27.788 24.283,0.299 48.678,5.145 72.345,9.752 24.604,4.791 41.871,1.984 67.471,-0.327 25.255,-2.279 51.294,4.993 71.463,19.957 30.271,22.462 40.281,55.347 56.76,86.773 20.65,39.379 39.792,81.711 66.328,117.226 29.205,39.087 50.996,83.16 59.418,131.051 11.121,63.24 -2.277,131.416 -41.886,182.716 -39.61,51.301 -106.327,83.39 -171.95,76.967 -35.879,-3.512 -71.075,-21.939 -106.631,-27.727" />
        <path
           inkscape:connector-curvature="0"
           id="path2881"
           style="fill:#69493e;fill-opacity:1;fill-rule:nonzero;stroke:none;stroke-width:0.1"
           d="m 552.323,941.95 c 1.167,7.711 3.536,16.88 11.162,19.271 7.347,2.303 15.179,-3.918 17.271,-11.145 2.091,-7.228 0.092,-14.91 -1.906,-22.166 -15.231,-55.33 -29.426,-111.08 -45.849,-166.07 -20.662,10.351 15.273,153.34 19.322,180.11" />
        <path
           inkscape:connector-curvature="0"
           id="path2883"
           style="fill:#aa3535;fill-opacity:1;fill-rule:nonzero;stroke:none;stroke-width:0.1"
           d="m 278.36,495.06 c -14.683,0 -30.32,11.391 -39.87,23.826 -79.085,102.98 20.417,249.566 143.825,249.566 1.819,0 3.621,-0.031 5.45,-0.095 23.13,-0.81 50.244,-10.588 54.734,-32.674 1.504,-7.396 0.088,-15.137 -2.79,-22.137 -9.045,-21.996 -30.816,-35.938 -49.325,-51.335 -39.899,-33.186 -68.608,-78.899 -80.752,-128.578 -3.128,-12.803 -6.122,-27.273 -17.398,-34.542 -4.356,-2.808 -9.065,-4.031 -13.874,-4.031" />
        <path
           inkscape:connector-curvature="0"
           id="path2885"
           style="fill:#911a1a;fill-opacity:1;fill-rule:nonzero;stroke:none;stroke-width:0.1"
           d="m 558.967,216.865 c -15.53,0 -27.367,4.37 -21.407,20.178 6.296,16.699 64.087,19.836 79.43,25.386 45.42,16.426 74.213,59.789 114.985,85.261 2.533,1.583 5.236,3.136 8.236,3.362 0.243,0.018 0.485,0.027 0.724,0.027 6.221,0 11.273,-6.052 11.996,-12.164 0.751,-6.347 -1.884,-12.567 -4.589,-18.391 -9.593,-20.663 -20.751,-40.639 -33.351,-59.714 -7.263,-10.995 -15.362,-22.021 -26.92,-28.683 -11.928,-6.875 -25.482,-8.167 -39.492,-8.167 -4.217,0 -8.474,0.117 -12.741,0.234 -4.267,0.117 -8.545,0.234 -12.8,0.234 -5.822,0 -11.601,-0.219 -17.259,-0.956 -6.092,-0.795 -28.906,-6.607 -46.812,-6.607" />
        <path
           inkscape:connector-curvature="0"
           id="path2887"
           style="fill:#881420;fill-opacity:1;fill-rule:nonzero;stroke:none;stroke-width:0.1"
           d="m 537.219,736.521 c -5.466,0 -10.855,0.84 -15.862,2.737 -7.44,2.818 -24.931,13.876 -20.668,23.463 1.26,2.833 4.657,4.223 7.86,4.223 0.192,0 0.384,-0.005 0.575,-0.015 3.36,-0.176 6.508,-1.554 9.69,-2.617 5.458,-1.824 11.228,-2.735 16.998,-2.735 6.104,0 12.207,1.018 17.942,3.053 4.195,1.487 8.246,3.511 12.659,4.168 0.816,0.122 1.654,0.185 2.494,0.185 3.705,0 7.455,-1.229 9.563,-4.115 2.441,-3.341 1.995,-8.096 -0.148,-11.625 -2.144,-3.528 -5.692,-6.03 -9.342,-8.08 -9.175,-5.154 -20.627,-8.642 -31.761,-8.642" />
        <path
           inkscape:connector-curvature="0"
           id="path2889"
           style="fill:#819332;fill-opacity:1;fill-rule:nonzero;stroke:none;stroke-width:0.1"
           d="m 534.278,775.166 c -2.467,-4.533 -5.009,-9.028 -7.654,-13.47 20.75,-14.45 75.91,-17.88 102.441,-21.738 44.477,-6.466 91.243,-5.114 133.689,13.376 35.192,15.348 57.536,38.518 81.548,66.436 28.581,33.23 64.24,61.556 96.682,91.2 -25.319,8.63 -53.337,6.864 -80.06,10.577 -26.435,3.673 -51.542,12.71 -77.497,18.497 -70.497,15.717 -159.515,-7.016 -200.251,-71.577 -18.802,-29.797 -32.108,-62.445 -48.898,-93.301" />
        <path
           inkscape:connector-curvature="0"
           id="path2891"
           style="fill:#849a31;fill-opacity:1;fill-rule:nonzero;stroke:none;stroke-width:0.1"
           d="m 940.984,910.97 c -25.319,8.63 -53.337,6.864 -80.06,10.577 -26.435,3.673 -51.542,12.71 -77.497,18.497 -70.497,15.717 -159.515,-7.016 -200.251,-71.577 -18.802,-29.797 -32.108,-62.445 -48.898,-93.301 -2.462,-4.525 -4.999,-9.012 -7.64,-13.446 1.718,2.885 11.515,3.255 14.539,4.301 9.78,3.381 19.206,7.975 28.596,12.269 20.307,9.285 40.299,19.206 60.608,28.488 57.163,26.125 116.718,47.29 177.723,63.19 29.415,7.667 57.761,13.952 86.159,24.171 15.577,5.604 31.148,11.22 46.721,16.831" />
        <path
           inkscape:connector-curvature="0"
           id="path2893"
           style="fill:#5c3e35;fill-opacity:1;fill-rule:nonzero;stroke:none;stroke-width:0.1"
           d="m 565.502,940.156 c -0.395,0 -0.786,0.049 -1.168,0.164 -0.94,0.283 -1.718,0.939 -2.371,1.669 -3.049,3.407 -3.508,9.266 -0.286,12.692 1.104,1.171 2.516,1.672 4.009,1.672 2.549,0 5.331,-1.463 7.192,-3.548 3.165,-3.546 3.668,-8.89 -4.164,-11.89 -1.032,-0.395 -2.137,-0.759 -3.212,-0.759" />
      </g>
      <text
         id="text3022"
         y="78.706398"
         x="193.53699"
         style="font-style:normal;font-weight:normal;font-size:104.51618195px;line-height:1.25;font-family:sans-serif;letter-spacing:0px;word-spacing:0px;fill:#a01c1c;fill-opacity:1;stroke:none;stroke-width:2.61290479"
         xml:space="preserve"><tspan
           style="font-style:normal;font-variant:normal;font-weight:bold;font-stretch:normal;font-family:Roboto;-inkscape-font-specification:'Roboto Bold';fill:#a01c1c;fill-opacity:1;stroke-width:2.61290479"
           y="78.706398"
           x="193.53699"
           id="tspan3020"
           sodipodi:role="line">Apples@Home</tspan></text>
      <text
         id="text3026"
         y="142.01587"
         x="189.66249"
         style="font-style:normal;font-weight:normal;font-size:43.11731339px;line-height:1.25;font-family:sans-serif;letter-spacing:0px;word-spacing:0px;fill:#819332;fill-opacity:1;stroke:none;stroke-width:1.07793283"
         xml:space="preserve"><tspan
           style="fill:#819332;fill-opacity:1;stroke-width:1.07793283"
           y="142.01587"
           x="189.66249"
           id="tspan3024"
           sodipodi:role="line">Home delivery of apples</tspan></text>
    </g>
  </g>
</svg>
